<svg xmlns="http://www.w3.org/2000/svg" version="1.1" viewBox="0.00 0.00 500.00 495.00">
<g stroke-width="2.00" fill="none" stroke-linecap="butt">
<path stroke="#add6d2" vector-effect="non-scaling-stroke" d="   M 406.23 135.62   Q 406.30 136.38 405.74 136.38   Q 404.92 136.38 404.88 135.54   Q 404.86 135.25 404.73 135.50   L 404.54 135.85   A 0.32 0.31 41.0 0 1 404.01 135.88   L 403.74 135.51   Q 403.55 135.24 403.24 135.31   L 387.78 138.55   Q 387.33 138.64 387.00 138.96   L 385.31 140.57   Q 385.15 140.73 385.13 140.95   Q 385.12 141.17 385.12 141.35   Q 385.16 142.27 384.39 141.76   Q 383.12 140.91 382.21 142.64   Q 381.99 143.05 381.88 143.49   Q 381.66 144.37 380.71 144.70   Q 380.30 144.84 380.25 144.75   Q 380.19 144.62 380.14 144.48   A 0.49 0.48 -13.3 0 0 379.62 144.16   L 365.36 145.74   Q 364.81 145.80 364.40 145.42   L 362.16 143.39   Q 361.84 143.10 361.42 142.99   Q 357.65 142.04 355.27 141.94   Q 354.74 141.92 354.17 142.43   Q 353.80 142.75 353.31 142.70   Q 349.03 142.24 344.83 143.20   Q 344.31 143.32 343.84 143.08   Q 342.06 142.15 340.46 143.23   Q 340.01 143.53 339.48 143.47   Q 337.10 143.20 334.90 144.17   Q 334.52 144.34 334.12 144.20   L 332.84 143.77   Q 332.36 143.60 332.40 144.11   Q 332.47 144.94 331.71 144.89   Q 331.39 144.87 331.30 145.17   L 331.16 145.62   A 0.62 0.62 0.0 0 1 330.52 146.05   Q 329.89 146.00 329.30 145.50" fill="#add6d2"/>
<path stroke="#add6d2" vector-effect="non-scaling-stroke" d="   M 329.30 145.50   Q 336.46 130.92 331.86 116.00   C 324.24 91.31 294.60 80.99 274.46 98.74   Q 259.25 112.14 262.08 134.51" fill="#add6d2"/>
<path stroke="#add6d2" vector-effect="non-scaling-stroke" d="   M 262.08 134.51   Q 262.25 135.14 261.97 135.52   Q 261.70 135.90 261.40 135.54   Q 260.82 134.86 260.05 134.39   C 258.94 133.71 257.69 134.22 256.79 134.98   Q 256.47 135.25 256.15 134.97   Q 255.48 134.36 254.52 134.80   Q 253.29 135.37 252.52 136.65   Q 252.26 137.08 251.83 136.81   Q 250.66 136.09 249.71 137.39   Q 248.57 138.97 247.26 137.63   A 0.67 0.67 0.0 0 0 246.45 137.51   C 244.27 138.76 241.79 139.49 239.27 139.13   Q 238.50 139.02 238.08 139.73   Q 237.82 140.18 237.30 140.16   Q 234.98 140.06 232.62 141.28   Q 229.66 142.82 226.13 142.08   Q 222.15 141.25 213.75 141.17   Q 209.25 141.13 204.78 140.90   A 0.56 0.52 -20.5 0 1 204.44 140.76   L 200.25 136.97   Q 200.02 136.76 199.74 136.87   Q 198.60 137.30 198.09 138.24   Q 197.80 138.79 197.23 138.57   Q 195.72 137.98 194.13 138.13   Q 194.51 138.02 194.74 138.28   A 0.36 0.35 -20.7 0 1 194.47 138.87   L 194.07 138.87   Q 193.56 138.87 193.62 138.37   L 193.91 136.04" fill="#add6d2"/>
<path stroke="#add6d2" vector-effect="non-scaling-stroke" d="   M 193.91 136.04   C 217.30 133.02 237.09 109.02 238.78 86.12   Q 238.85 85.22 238.25 85.89   Q 225.80 99.88 208.25 100.53   Q 185.07 101.40 170.86 117.33   Q 168.64 119.82 167.79 121.58" fill="#add6d2"/>
<path stroke="#add6d2" vector-effect="non-scaling-stroke" d="   M 166.68 122.53   Q 167.02 121.18 166.63 119.99   Q 166.45 119.42 166.72 118.89   L 167.13 118.08   A 0.45 0.45 0.0 0 0 166.68 117.43   L 163.18 117.84   Q 162.70 117.90 162.27 118.10   Q 159.66 119.29 156.79 119.43   Q 156.15 119.47 156.14 118.82   L 156.13 117.52" fill="#add6d2"/>
<path stroke="#add6d2" vector-effect="non-scaling-stroke" d="   M 137.56 134.50   Q 134.78 139.03 133.09 144.03   Q 131.13 149.81 131.10 149.90   Q 124.07 169.25 123.16 190.09" fill="#add6d2"/>
<path stroke="#add6d2" vector-effect="non-scaling-stroke" d="   M 123.16 190.09   Q 122.65 189.64 122.24 189.53   Q 121.69 189.38 121.86 189.92   Q 122.10 190.68 121.47 190.91   Q 120.88 191.12 120.88 191.75   L 120.88 192.49   Q 120.88 192.89 120.49 192.95   L 114.54 193.99   Q 114.11 194.07 113.77 194.32   Q 112.99 194.92 112.08 194.37   A 1.50 1.47 58.1 0 0 111.22 194.16   Q 105.80 194.44 100.40 194.13   Q 94.61 193.80 89.58 193.75   Q 79.60 193.66 69.76 191.74   Q 68.98 191.59 68.09 192.43   Q 67.69 192.81 67.38 192.36   Q 66.76 191.47 66.50 190.15" fill="#add6d2"/>
<path stroke="#add6d2" vector-effect="non-scaling-stroke" d="   M 329.30 145.50   Q 325.14 153.43 318.23 159.13   Q 317.84 159.45 317.83 159.94   C 317.53 174.32 321.01 187.48 332.79 196.23   C 338.67 200.60 346.48 203.20 354.34 206.43   C 392.21 222.04 393.08 264.19 381.31 297.04" fill="#add6d2"/>
<path stroke="#add6d2" vector-effect="non-scaling-stroke" d="   M 381.31 297.04   Q 379.24 303.97 378.44 305.84   Q 369.34 327.36 366.89 333.47   Q 354.85 363.54 359.09 395.80   A 0.70 0.69 -21.5 0 0 360.19 396.27   Q 403.61 365.28 425.51 316.26   Q 429.86 306.53 434.27 290.12" fill="#add6d2"/>
<path stroke="#add6d2" vector-effect="non-scaling-stroke" d="   M 434.27 290.12   Q 435.91 284.05 436.12 282.00   Q 436.58 277.56 438.30 273.97" fill="#add6d2"/>
<path stroke="#add6d2" vector-effect="non-scaling-stroke" d="   M 304.74 423.55   Q 304.57 423.49 304.48 423.44   Q 304.34 423.36 304.49 423.30   L 331.96 411.84   A 2.71 2.69 -9.7 0 0 333.62 409.51   Q 334.07 402.37 335.31 395.00   Q 339.91 367.80 347.79 341.50   A 0.19 0.18 -18.7 0 0 347.46 341.34   C 336.58 355.76 326.32 370.36 318.81 386.80   Q 315.41 394.24 303.89 420.71   Q 303.17 422.36 303.20 423.98" fill="#add6d2"/>
<path stroke="#add6d2" vector-effect="non-scaling-stroke" d="   M 227.57 431.54   L 239.64 432.41   A 1.46 1.40 27.7 0 0 240.57 432.14   C 251.11 424.53 259.18 410.93 263.63 398.96   C 275.50 367.03 274.25 332.09 254.93 303.91   A 0.28 0.28 0.0 0 1 255.38 303.57   C 269.86 321.52 291.84 335.38 316.19 331.04   C 341.05 326.59 361.10 303.72 356.83 277.41   Q 356.40 274.81 355.47 277.27   C 346.24 301.79 318.55 314.33 294.18 303.78   C 288.64 301.38 281.13 296.30 276.76 292.50   C 260.32 278.19 244.41 264.07 223.48 256.67   C 209.74 251.81 190.59 250.60 178.32 259.68   C 170.70 265.33 167.35 273.53 169.38 282.75   C 172.02 294.72 184.98 306.58 194.12 314.11   Q 194.84 314.71 204.81 321.85   Q 211.02 326.31 216.35 331.76   Q 217.29 332.72 215.96 332.50   C 181.36 326.61 154.39 299.33 139.52 268.63" fill="#add6d2"/>
<path stroke="#add6d2" vector-effect="non-scaling-stroke" d="   M 139.52 268.63   C 127.41 243.69 121.51 217.69 123.16 190.09" fill="#add6d2"/>
<path stroke="#add6d2" vector-effect="non-scaling-stroke" d="   M 142.24 147.55   Q 142.62 148.05 142.42 148.73   C 129.98 192.24 133.99 239.29 156.46 279.05   A 0.51 0.51 0.0 0 0 157.41 278.76   C 154.25 239.98 201.48 218.44 232.23 212.61   C 253.13 208.64 278.16 207.10 290.79 187.03   Q 295.24 179.96 294.68 169.41   Q 294.66 168.92 294.17 168.92   C 275.71 168.84 264.62 150.97 262.08 134.51" fill="#add6d2"/>
<path stroke="#add6d2" vector-effect="non-scaling-stroke" d="   M 193.91 136.04   Q 184.51 136.20 175.25 133.05   Q 174.23 132.70 170.99 133.29" fill="#add6d2"/>
<path stroke="#add6d2" vector-effect="non-scaling-stroke" d="   M 434.27 290.12   Q 432.56 288.75 431.58 290.25   Q 431.38 290.57 431.01 290.68   Q 429.96 290.97 428.95 291.42   Q 428.53 291.60 428.08 291.60   Q 422.91 291.68 417.74 291.71   Q 416.94 291.71 412.78 291.38   Q 410.17 291.17 407.78 291.65   Q 407.20 291.77 406.75 292.27   Q 406.52 292.52 406.39 292.21   Q 405.99 291.29 404.91 291.26   A 0.39 0.39 0.0 0 0 404.64 291.94   Q 405.10 292.36 404.81 292.11   Q 404.72 292.03 404.61 292.09   Q 402.93 293.05 402.03 291.41   Q 401.80 291.00 401.36 291.16   Q 399.98 291.63 399.12 292.80   Q 398.89 293.12 398.49 293.10   Q 396.92 293.05 395.51 293.82   Q 395.10 294.05 394.63 294.05   Q 391.83 294.08 389.20 294.84   Q 388.22 295.13 385.22 295.65   Q 383.32 295.97 381.31 297.04" fill="#add6d2"/>
<path stroke="#add6d2" vector-effect="non-scaling-stroke" d="   M 139.52 268.63   Q 138.63 268.80 138.46 267.25   A 0.52 0.52 0.0 0 0 137.47 267.09   Q 137.41 267.21 137.32 267.36   Q 137.25 267.49 137.13 267.39   Q 136.87 267.17 136.58 267.14   Q 136.31 267.12 136.00 267.36   Q 131.43 270.88 126.50 273.88   Q 126.24 274.04 125.97 273.90   L 125.74 273.78   Q 124.96 273.35 124.93 274.25   L 124.87 276.51   Q 124.86 276.87 124.53 276.74   Q 123.70 276.44 123.28 277.07" fill="#add6d2"/>
<path stroke="#add6d2" vector-effect="non-scaling-stroke" d="   M 123.28 277.07   Q 114.03 256.84 111.23 234.61" fill="#add6d2"/>
<path stroke="#add6d2" vector-effect="non-scaling-stroke" d="   M 103.13 226.82   Q 92.37 226.09 89.50 226.53   Q 79.30 228.09 72.75 227.78   Q 65.69 227.45 61.26 227.91   Q 60.82 227.96 60.70 228.39   L 60.46 229.29   A 0.32 0.32 0.0 0 1 59.83 229.25   L 59.34 225.96" fill="#add6d2"/>
<path stroke="#add6d2" vector-effect="non-scaling-stroke" d="   M 223.78 430.94   Q 222.43 430.29 220.48 430.74" fill="#add6d2"/>
<path stroke="#add6d2" vector-effect="non-scaling-stroke" d="   M 101.18 242.40   C 99.49 275.90 108.72 307.47 128.22 334.44   C 141.32 352.57 159.31 366.83 172.76 382.26   Q 183.77 394.89 190.46 409.50   Q 193.58 416.31 194.24 423.99" fill="#add6d2"/>
<path stroke="#add6d2" vector-effect="non-scaling-stroke" d="   M 123.28 277.07   Q 138.04 307.36 163.97 329.30   Q 182.48 344.96 188.59 350.40   Q 213.82 372.86 219.12 406.15   A 0.36 0.36 0.0 0 0 219.80 406.25   Q 228.49 388.06 229.59 368.26   Q 231.78 328.71 209.92 296.08   C 202.80 285.46 193.75 276.42 181.94 272.52   Q 181.23 272.28 181.96 272.10   Q 186.90 270.84 192.01 271.44   C 210.54 273.64 226.54 285.21 236.02 301.02   C 255.09 332.86 253.60 373.31 237.97 405.93   Q 231.78 418.86 218.41 430.24" fill="#add6d2"/>
<path stroke="#add6d2" vector-effect="non-scaling-stroke" d="   M 273.80 241.90   C 293.08 255.58 306.99 276.12 332.37 272.78   C 352.89 270.08 365.50 251.58 358.94 231.46   A 0.35 0.35 0.0 0 0 358.28 231.44   C 354.14 242.62 344.70 249.21 332.94 250.10   C 321.36 250.97 308.54 243.16 299.55 237.74   Q 274.61 222.73 245.81 225.25   Q 244.80 225.34 245.72 225.75   Q 260.57 232.51 273.80 241.90" fill="#add6d2"/>
<path stroke="#add6d2" vector-effect="non-scaling-stroke" d="   M 220.35 151.36   C 214.92 160.03 206.17 165.64 196.10 167.14   C 186.91 168.50 177.26 169.26 169.08 174.62   C 153.83 184.61 145.65 202.33 145.78 220.54   A 0.28 0.28 0.0 0 0 146.33 220.61   Q 148.48 212.48 154.62 206.85   C 159.48 202.41 163.74 203.70 169.43 204.96   C 189.92 209.52 208.26 191.68 216.12 174.77   Q 221.18 163.90 220.89 151.51   A 0.29 0.29 0.0 0 0 220.35 151.36" fill="#add6d2"/>
</g>
<path fill="#add6d2" d="   M 406.23 135.62   Q 406.30 136.38 405.74 136.38   Q 404.92 136.38 404.88 135.54   Q 404.86 135.25 404.73 135.50   L 404.54 135.85   A 0.32 0.31 41.0 0 1 404.01 135.88   L 403.74 135.51   Q 403.55 135.24 403.24 135.31   L 387.78 138.55   Q 387.33 138.64 387.00 138.96   L 385.31 140.57   Q 385.15 140.73 385.13 140.95   Q 385.12 141.17 385.12 141.35   Q 385.16 142.27 384.39 141.76   Q 383.12 140.91 382.21 142.64   Q 381.99 143.05 381.88 143.49   Q 381.66 144.37 380.71 144.70   Q 380.30 144.84 380.25 144.75   Q 380.19 144.62 380.14 144.48   A 0.49 0.48 -13.3 0 0 379.62 144.16   L 365.36 145.74   Q 364.81 145.80 364.40 145.42   L 362.16 143.39   Q 361.84 143.10 361.42 142.99   Q 357.65 142.04 355.27 141.94   Q 354.74 141.92 354.17 142.43   Q 353.80 142.75 353.31 142.70   Q 349.03 142.24 344.83 143.20   Q 344.31 143.32 343.84 143.08   Q 342.06 142.15 340.46 143.23   Q 340.01 143.53 339.48 143.47   Q 337.10 143.20 334.90 144.17   Q 334.52 144.34 334.12 144.20   L 332.84 143.77   Q 332.36 143.60 332.40 144.11   Q 332.47 144.94 331.71 144.89   Q 331.39 144.87 331.30 145.17   L 331.16 145.62   A 0.62 0.62 0.0 0 1 330.52 146.05   Q 329.89 146.00 329.30 145.50   Q 336.46 130.92 331.86 116.00   C 324.24 91.31 294.60 80.99 274.46 98.74   Q 259.25 112.14 262.08 134.51   Q 262.25 135.14 261.97 135.52   Q 261.70 135.90 261.40 135.54   Q 260.82 134.86 260.05 134.39   C 258.94 133.71 257.69 134.22 256.79 134.98   Q 256.47 135.25 256.15 134.97   Q 255.48 134.36 254.52 134.80   Q 253.29 135.37 252.52 136.65   Q 252.26 137.08 251.83 136.81   Q 250.66 136.09 249.71 137.39   Q 248.57 138.97 247.26 137.63   A 0.67 0.67 0.0 0 0 246.45 137.51   C 244.27 138.76 241.79 139.49 239.27 139.13   Q 238.50 139.02 238.08 139.73   Q 237.82 140.18 237.30 140.16   Q 234.98 140.06 232.62 141.28   Q 229.66 142.82 226.13 142.08   Q 222.15 141.25 213.75 141.17   Q 209.25 141.13 204.78 140.90   A 0.56 0.52 -20.5 0 1 204.44 140.76   L 200.25 136.97   Q 200.02 136.76 199.74 136.87   Q 198.60 137.30 198.09 138.24   Q 197.80 138.79 197.23 138.57   Q 195.72 137.98 194.13 138.13   Q 194.51 138.02 194.74 138.28   A 0.36 0.35 -20.7 0 1 194.47 138.87   L 194.07 138.87   Q 193.56 138.87 193.62 138.37   L 193.91 136.04   C 217.30 133.02 237.09 109.02 238.78 86.12   Q 238.85 85.22 238.25 85.89   Q 225.80 99.88 208.25 100.53   Q 185.07 101.40 170.86 117.33   Q 168.64 119.82 167.79 121.58   L 166.68 122.53   Q 167.02 121.18 166.63 119.99   Q 166.45 119.42 166.72 118.89   L 167.13 118.08   A 0.45 0.45 0.0 0 0 166.68 117.43   L 163.18 117.84   Q 162.70 117.90 162.27 118.10   Q 159.66 119.29 156.79 119.43   Q 156.15 119.47 156.14 118.82   L 156.13 117.52   Q 163.31 105.39 172.62 94.95   Q 172.77 94.78 172.83 94.60   Q 172.92 94.31 172.85 94.17   A 0.60 0.60 0.0 0 0 172.03 93.93   Q 159.17 100.99 150.39 112.63   Q 141.38 124.57 137.56 134.50   Q 134.78 139.03 133.09 144.03   Q 131.13 149.81 131.10 149.90   Q 124.07 169.25 123.16 190.09   Q 122.65 189.64 122.24 189.53   Q 121.69 189.38 121.86 189.92   Q 122.10 190.68 121.47 190.91   Q 120.88 191.12 120.88 191.75   L 120.88 192.49   Q 120.88 192.89 120.49 192.95   L 114.54 193.99   Q 114.11 194.07 113.77 194.32   Q 112.99 194.92 112.08 194.37   A 1.50 1.47 58.1 0 0 111.22 194.16   Q 105.80 194.44 100.40 194.13   Q 94.61 193.80 89.58 193.75   Q 79.60 193.66 69.76 191.74   Q 68.98 191.59 68.09 192.43   Q 67.69 192.81 67.38 192.36   Q 66.76 191.47 66.50 190.15   Q 73.44 166.24 88.97 142.46   C 118.44 97.35 163.37 69.71 216.00 59.45   C 234.34 55.87 254.79 55.89 273.30 57.95   Q 283.28 59.06 293.01 61.32   Q 363.18 77.62 406.23 135.62   Z"/>
<path fill="#fdfefe" d="   M 193.91 136.04   Q 184.51 136.20 175.25 133.05   Q 174.23 132.70 170.99 133.29   L 167.68 130.67   A 0.75 0.74 37.8 0 1 167.55 129.65   L 169.20 127.41   Q 169.50 127.00 169.21 126.59   Q 167.72 124.46 167.79 121.58   Q 168.64 119.82 170.86 117.33   Q 185.07 101.40 208.25 100.53   Q 225.80 99.88 238.25 85.89   Q 238.85 85.22 238.78 86.12   C 237.09 109.02 217.30 133.02 193.91 136.04   Z"/>
<path fill="#fdfefe" d="   M 329.30 145.50   Q 325.14 153.43 318.23 159.13   Q 317.84 159.45 317.83 159.94   C 317.53 174.32 321.01 187.48 332.79 196.23   C 338.67 200.60 346.48 203.20 354.34 206.43   C 392.21 222.04 393.08 264.19 381.31 297.04   Q 379.24 303.97 378.44 305.84   Q 369.34 327.36 366.89 333.47   Q 354.85 363.54 359.09 395.80   A 0.70 0.69 -21.5 0 0 360.19 396.27   Q 403.61 365.28 425.51 316.26   Q 429.86 306.53 434.27 290.12   Q 435.91 284.05 436.12 282.00   Q 436.58 277.56 438.30 273.97   Q 425.90 342.97 372.56 387.85   Q 364.44 394.69 354.36 400.35   C 350.64 402.44 348.60 402.89 343.80 402.91   Q 335.85 402.94 333.75 411.20   Q 333.62 411.71 333.13 411.90   L 304.74 423.55   Q 304.57 423.49 304.48 423.44   Q 304.34 423.36 304.49 423.30   L 331.96 411.84   A 2.71 2.69 -9.7 0 0 333.62 409.51   Q 334.07 402.37 335.31 395.00   Q 339.91 367.80 347.79 341.50   A 0.19 0.18 -18.7 0 0 347.46 341.34   C 336.58 355.76 326.32 370.36 318.81 386.80   Q 315.41 394.24 303.89 420.71   Q 303.17 422.36 303.20 423.98   C 289.94 432.61 270.89 432.39 255.71 432.02   Q 252.57 431.94 247.79 432.64   Q 237.64 434.12 227.57 431.54   L 239.64 432.41   A 1.46 1.40 27.7 0 0 240.57 432.14   C 251.11 424.53 259.18 410.93 263.63 398.96   C 275.50 367.03 274.25 332.09 254.93 303.91   A 0.28 0.28 0.0 0 1 255.38 303.57   C 269.86 321.52 291.84 335.38 316.19 331.04   C 341.05 326.59 361.10 303.72 356.83 277.41   Q 356.40 274.81 355.47 277.27   C 346.24 301.79 318.55 314.33 294.18 303.78   C 288.64 301.38 281.13 296.30 276.76 292.50   C 260.32 278.19 244.41 264.07 223.48 256.67   C 209.74 251.81 190.59 250.60 178.32 259.68   C 170.70 265.33 167.35 273.53 169.38 282.75   C 172.02 294.72 184.98 306.58 194.12 314.11   Q 194.84 314.71 204.81 321.85   Q 211.02 326.31 216.35 331.76   Q 217.29 332.72 215.96 332.50   C 181.36 326.61 154.39 299.33 139.52 268.63   C 127.41 243.69 121.51 217.69 123.16 190.09   Q 124.07 169.25 131.10 149.90   Q 131.13 149.81 133.09 144.03   Q 134.78 139.03 137.56 134.50   Q 138.83 134.90 139.12 135.71   Q 139.31 136.24 138.99 136.70   Q 137.85 138.29 137.93 140.25   A 0.72 0.71 -88.6 0 0 138.57 140.93   C 144.20 141.47 139.94 145.43 142.24 147.55   Q 142.62 148.05 142.42 148.73   C 129.98 192.24 133.99 239.29 156.46 279.05   A 0.51 0.51 0.0 0 0 157.41 278.76   C 154.25 239.98 201.48 218.44 232.23 212.61   C 253.13 208.64 278.16 207.10 290.79 187.03   Q 295.24 179.96 294.68 169.41   Q 294.66 168.92 294.17 168.92   C 275.71 168.84 264.62 150.97 262.08 134.51   Q 259.25 112.14 274.46 98.74   C 294.60 80.99 324.24 91.31 331.86 116.00   Q 336.46 130.92 329.30 145.50   Z   M 139.97 144.09   Q 140.50 143.94 140.19 143.49   Q 139.84 142.98 139.26 143.15   A 0.64 0.48 -52.6 0 0 139.25 144.28   L 139.97 144.09   Z   M 273.80 241.90   C 293.08 255.58 306.99 276.12 332.37 272.78   C 352.89 270.08 365.50 251.58 358.94 231.46   A 0.35 0.35 0.0 0 0 358.28 231.44   C 354.14 242.62 344.70 249.21 332.94 250.10   C 321.36 250.97 308.54 243.16 299.55 237.74   Q 274.61 222.73 245.81 225.25   Q 244.80 225.34 245.72 225.75   Q 260.57 232.51 273.80 241.90   Z"/>
<path fill="#add6d2" d="   M 166.68 122.53   C 161.50 129.49 156.70 140.12 156.81 149.26   A 0.38 0.38 0.0 0 0 157.52 149.45   C 161.44 142.89 163.71 137.81 170.99 133.29   Q 174.23 132.70 175.25 133.05   Q 184.51 136.20 193.91 136.04   L 193.62 138.37   Q 193.56 138.87 194.07 138.87   L 194.47 138.87   A 0.36 0.35 -20.7 0 0 194.74 138.28   Q 194.51 138.02 194.13 138.13   Q 195.72 137.98 197.23 138.57   Q 197.80 138.79 198.09 138.24   Q 198.60 137.30 199.74 136.87   Q 200.02 136.76 200.25 136.97   L 204.44 140.76   A 0.56 0.52 -20.5 0 0 204.78 140.90   Q 209.25 141.13 213.75 141.17   Q 222.15 141.25 226.13 142.08   Q 229.66 142.82 232.62 141.28   Q 234.98 140.06 237.30 140.16   Q 237.82 140.18 238.08 139.73   Q 238.50 139.02 239.27 139.13   C 241.79 139.49 244.27 138.76 246.45 137.51   A 0.67 0.67 0.0 0 1 247.26 137.63   Q 248.57 138.97 249.71 137.39   Q 250.66 136.09 251.83 136.81   Q 252.26 137.08 252.52 136.65   Q 253.29 135.37 254.52 134.80   Q 255.48 134.36 256.15 134.97   Q 256.47 135.25 256.79 134.98   C 257.69 134.22 258.94 133.71 260.05 134.39   Q 260.82 134.86 261.40 135.54   Q 261.70 135.90 261.97 135.52   Q 262.25 135.14 262.08 134.51   C 264.62 150.97 275.71 168.84 294.17 168.92   Q 294.66 168.92 294.68 169.41   Q 295.24 179.96 290.79 187.03   C 278.16 207.10 253.13 208.64 232.23 212.61   C 201.48 218.44 154.25 239.98 157.41 278.76   A 0.51 0.51 0.0 0 1 156.46 279.05   C 133.99 239.29 129.98 192.24 142.42 148.73   Q 142.62 148.05 142.24 147.55   Q 142.70 147.78 142.89 147.26   Q 148.37 131.80 156.13 117.52   L 156.14 118.82   Q 156.15 119.47 156.79 119.43   Q 159.66 119.29 162.27 118.10   Q 162.70 117.90 163.18 117.84   L 166.68 117.43   A 0.45 0.45 0.0 0 1 167.13 118.08   L 166.72 118.89   Q 166.45 119.42 166.63 119.99   Q 167.02 121.18 166.68 122.53   Z   M 220.35 151.36   C 214.92 160.03 206.17 165.64 196.10 167.14   C 186.91 168.50 177.26 169.26 169.08 174.62   C 153.83 184.61 145.65 202.33 145.78 220.54   A 0.28 0.28 0.0 0 0 146.33 220.61   Q 148.48 212.48 154.62 206.85   C 159.48 202.41 163.74 203.70 169.43 204.96   C 189.92 209.52 208.26 191.68 216.12 174.77   Q 221.18 163.90 220.89 151.51   A 0.29 0.29 0.0 0 0 220.35 151.36   Z"/>
<path fill="#add6d2" d="   M 406.23 135.62   Q 441.78 185.80 440.73 247.75   Q 440.48 262.27 438.30 273.97   Q 436.58 277.56 436.12 282.00   Q 435.91 284.05 434.27 290.12   Q 432.56 288.75 431.58 290.25   Q 431.38 290.57 431.01 290.68   Q 429.96 290.97 428.95 291.42   Q 428.53 291.60 428.08 291.60   Q 422.91 291.68 417.74 291.71   Q 416.94 291.71 412.78 291.38   Q 410.17 291.17 407.78 291.65   Q 407.20 291.77 406.75 292.27   Q 406.52 292.52 406.39 292.21   Q 405.99 291.29 404.91 291.26   A 0.39 0.39 0.0 0 0 404.64 291.94   Q 405.10 292.36 404.81 292.11   Q 404.72 292.03 404.61 292.09   Q 402.93 293.05 402.03 291.41   Q 401.80 291.00 401.36 291.16   Q 399.98 291.63 399.12 292.80   Q 398.89 293.12 398.49 293.10   Q 396.92 293.05 395.51 293.82   Q 395.10 294.05 394.63 294.05   Q 391.83 294.08 389.20 294.84   Q 388.22 295.13 385.22 295.65   Q 383.32 295.97 381.31 297.04   C 393.08 264.19 392.21 222.04 354.34 206.43   C 346.48 203.20 338.67 200.60 332.79 196.23   C 321.01 187.48 317.53 174.32 317.83 159.94   Q 317.84 159.45 318.23 159.13   Q 325.14 153.43 329.30 145.50   Q 329.89 146.00 330.52 146.05   A 0.62 0.62 0.0 0 0 331.16 145.62   L 331.30 145.17   Q 331.39 144.87 331.71 144.89   Q 332.47 144.94 332.40 144.11   Q 332.36 143.60 332.84 143.77   L 334.12 144.20   Q 334.52 144.34 334.90 144.17   Q 337.10 143.20 339.48 143.47   Q 340.01 143.53 340.46 143.23   Q 342.06 142.15 343.84 143.08   Q 344.31 143.32 344.83 143.20   Q 349.03 142.24 353.31 142.70   Q 353.80 142.75 354.17 142.43   Q 354.74 141.92 355.27 141.94   Q 357.65 142.04 361.42 142.99   Q 361.84 143.10 362.16 143.39   L 364.40 145.42   Q 364.81 145.80 365.36 145.74   L 379.62 144.16   A 0.49 0.48 -13.3 0 1 380.14 144.48   Q 380.19 144.62 380.25 144.75   Q 380.30 144.84 380.71 144.70   Q 381.66 144.37 381.88 143.49   Q 381.99 143.05 382.21 142.64   Q 383.12 140.91 384.39 141.76   Q 385.16 142.27 385.12 141.35   Q 385.12 141.17 385.13 140.95   Q 385.15 140.73 385.31 140.57   L 387.00 138.96   Q 387.33 138.64 387.78 138.55   L 403.24 135.31   Q 403.55 135.24 403.74 135.51   L 404.01 135.88   A 0.32 0.31 41.0 0 0 404.54 135.85   L 404.73 135.50   Q 404.86 135.25 404.88 135.54   Q 404.92 136.38 405.74 136.38   Q 406.30 136.38 406.23 135.62   Z"/>
<path fill="#fdfefe" d="   M 196.10 167.14   C 206.17 165.64 214.92 160.03 220.35 151.36   A 0.29 0.29 0.0 0 1 220.89 151.51   Q 221.18 163.90 216.12 174.77   C 208.26 191.68 189.92 209.52 169.43 204.96   C 163.74 203.70 159.48 202.41 154.62 206.85   Q 148.48 212.48 146.33 220.61   A 0.28 0.28 0.0 0 1 145.78 220.54   C 145.65 202.33 153.83 184.61 169.08 174.62   C 177.26 169.26 186.91 168.50 196.10 167.14   Z"/>
<path fill="#add6d2" d="   M 123.16 190.09   C 121.51 217.69 127.41 243.69 139.52 268.63   Q 138.63 268.80 138.46 267.25   A 0.52 0.52 0.0 0 0 137.47 267.09   Q 137.41 267.21 137.32 267.36   Q 137.25 267.49 137.13 267.39   Q 136.87 267.17 136.58 267.14   Q 136.31 267.12 136.00 267.36   Q 131.43 270.88 126.50 273.88   Q 126.24 274.04 125.97 273.90   L 125.74 273.78   Q 124.96 273.35 124.93 274.25   L 124.87 276.51   Q 124.86 276.87 124.53 276.74   Q 123.70 276.44 123.28 277.07   Q 114.03 256.84 111.23 234.61   Q 109.89 221.17 111.28 207.38   Q 111.34 206.85 111.63 206.17   Q 112.00 205.30 111.85 204.89   Q 111.27 203.32 110.53 204.81   Q 105.53 214.87 103.13 226.82   Q 92.37 226.09 89.50 226.53   Q 79.30 228.09 72.75 227.78   Q 65.69 227.45 61.26 227.91   Q 60.82 227.96 60.70 228.39   L 60.46 229.29   A 0.32 0.32 0.0 0 1 59.83 229.25   L 59.34 225.96   Q 61.01 207.67 66.50 190.15   Q 66.76 191.47 67.38 192.36   Q 67.69 192.81 68.09 192.43   Q 68.98 191.59 69.76 191.74   Q 79.60 193.66 89.58 193.75   Q 94.61 193.80 100.40 194.13   Q 105.80 194.44 111.22 194.16   A 1.50 1.47 58.1 0 1 112.08 194.37   Q 112.99 194.92 113.77 194.32   Q 114.11 194.07 114.54 193.99   L 120.49 192.95   Q 120.88 192.89 120.88 192.49   L 120.88 191.75   Q 120.88 191.12 121.47 190.91   Q 122.10 190.68 121.86 189.92   Q 121.69 189.38 122.24 189.53   Q 122.65 189.64 123.16 190.09   Z"/>
<path fill="#add6d2" d="   M 332.37 272.78   C 306.99 276.12 293.08 255.58 273.80 241.90   Q 260.57 232.51 245.72 225.75   Q 244.80 225.34 245.81 225.25   Q 274.61 222.73 299.55 237.74   C 308.54 243.16 321.36 250.97 332.94 250.10   C 344.70 249.21 354.14 242.62 358.28 231.44   A 0.35 0.35 0.0 0 1 358.94 231.46   C 365.50 251.58 352.89 270.08 332.37 272.78   Z"/>
<path fill="#add6d2" d="   M 59.34 225.96   L 59.83 229.25   A 0.32 0.32 0.0 0 0 60.46 229.29   L 60.70 228.39   Q 60.82 227.96 61.26 227.91   Q 65.69 227.45 72.75 227.78   Q 79.30 228.09 89.50 226.53   Q 92.37 226.09 103.13 226.82   Q 101.55 233.71 101.18 242.40   C 99.49 275.90 108.72 307.47 128.22 334.44   C 141.32 352.57 159.31 366.83 172.76 382.26   Q 183.77 394.89 190.46 409.50   Q 193.58 416.31 194.24 423.99   Q 136.28 405.15 99.37 359.38   Q 52.84 301.67 59.34 225.96   Z"/>
<path fill="#fdfefe" d="   M 111.23 234.61   Q 114.03 256.84 123.28 277.07   Q 138.04 307.36 163.97 329.30   Q 182.48 344.96 188.59 350.40   Q 213.82 372.86 219.12 406.15   A 0.36 0.36 0.0 0 0 219.80 406.25   Q 228.49 388.06 229.59 368.26   Q 231.78 328.71 209.92 296.08   C 202.80 285.46 193.75 276.42 181.94 272.52   Q 181.23 272.28 181.96 272.10   Q 186.90 270.84 192.01 271.44   C 210.54 273.64 226.54 285.21 236.02 301.02   C 255.09 332.86 253.60 373.31 237.97 405.93   Q 231.78 418.86 218.41 430.24   Q 209.38 431.19 200.62 428.64   Q 196.24 427.36 194.24 423.99   Q 193.58 416.31 190.46 409.50   Q 183.77 394.89 172.76 382.26   C 159.31 366.83 141.32 352.57 128.22 334.44   C 108.72 307.47 99.49 275.90 101.18 242.40   L 105.28 235.55   Q 105.53 235.14 106.01 235.09   L 111.23 234.61   Z"/>
<path fill="#add6d2" d="   M 227.57 431.54   Q 225.31 431.77 223.78 430.94   Q 222.43 430.29 220.48 430.74   Q 219.48 430.87 218.41 430.24   Q 231.78 418.86 237.97 405.93   C 253.60 373.31 255.09 332.86 236.02 301.02   C 226.54 285.21 210.54 273.64 192.01 271.44   Q 186.90 270.84 181.96 272.10   Q 181.23 272.28 181.94 272.52   C 193.75 276.42 202.80 285.46 209.92 296.08   Q 231.78 328.71 229.59 368.26   Q 228.49 388.06 219.80 406.25   A 0.36 0.36 0.0 0 1 219.12 406.15   Q 213.82 372.86 188.59 350.40   Q 182.48 344.96 163.97 329.30   Q 138.04 307.36 123.28 277.07   Q 123.70 276.44 124.53 276.74   Q 124.86 276.87 124.87 276.51   L 124.93 274.25   Q 124.96 273.35 125.74 273.78   L 125.97 273.90   Q 126.24 274.04 126.50 273.88   Q 131.43 270.88 136.00 267.36   Q 136.31 267.12 136.58 267.14   Q 136.87 267.17 137.13 267.39   Q 137.25 267.49 137.32 267.36   Q 137.41 267.21 137.47 267.09   A 0.52 0.52 0.0 0 1 138.46 267.25   Q 138.63 268.80 139.52 268.63   C 154.39 299.33 181.36 326.61 215.96 332.50   Q 217.29 332.72 216.35 331.76   Q 211.02 326.31 204.81 321.85   Q 194.84 314.71 194.12 314.11   C 184.98 306.58 172.02 294.72 169.38 282.75   C 167.35 273.53 170.70 265.33 178.32 259.68   C 190.59 250.60 209.74 251.81 223.48 256.67   C 244.41 264.07 260.32 278.19 276.76 292.50   C 281.13 296.30 288.64 301.38 294.18 303.78   C 318.55 314.33 346.24 301.79 355.47 277.27   Q 356.40 274.81 356.83 277.41   C 361.10 303.72 341.05 326.59 316.19 331.04   C 291.84 335.38 269.86 321.52 255.38 303.57   A 0.28 0.28 0.0 0 0 254.93 303.91   C 274.25 332.09 275.50 367.03 263.63 398.96   C 259.18 410.93 251.11 424.53 240.57 432.14   A 1.46 1.40 27.7 0 1 239.64 432.41   L 227.57 431.54   Z"/>
<path fill="#add6d2" d="   M 434.27 290.12   Q 429.86 306.53 425.51 316.26   Q 403.61 365.28 360.19 396.27   A 0.70 0.69 -21.5 0 1 359.09 395.80   Q 354.85 363.54 366.89 333.47   Q 369.34 327.36 378.44 305.84   Q 379.24 303.97 381.31 297.04   Q 383.32 295.97 385.22 295.65   Q 388.22 295.13 389.20 294.84   Q 391.83 294.08 394.63 294.05   Q 395.10 294.05 395.51 293.82   Q 396.92 293.05 398.49 293.10   Q 398.89 293.12 399.12 292.80   Q 399.98 291.63 401.36 291.16   Q 401.80 291.00 402.03 291.41   Q 402.93 293.05 404.61 292.09   Q 404.72 292.03 404.81 292.11   Q 405.10 292.36 404.64 291.94   A 0.39 0.39 0.0 0 1 404.91 291.26   Q 405.99 291.29 406.39 292.21   Q 406.52 292.52 406.75 292.27   Q 407.20 291.77 407.78 291.65   Q 410.17 291.17 412.78 291.38   Q 416.94 291.71 417.74 291.71   Q 422.91 291.68 428.08 291.60   Q 428.53 291.60 428.95 291.42   Q 429.96 290.97 431.01 290.68   Q 431.38 290.57 431.58 290.25   Q 432.56 288.75 434.27 290.12   Z"/>
<path fill="#add6d2" d="   M 304.74 423.55   L 303.20 423.98   Q 303.17 422.36 303.89 420.71   Q 315.41 394.24 318.81 386.80   C 326.32 370.36 336.58 355.76 347.46 341.34   A 0.19 0.18 -18.7 0 1 347.79 341.50   Q 339.91 367.80 335.31 395.00   Q 334.07 402.37 333.62 409.51   A 2.71 2.69 -9.7 0 1 331.96 411.84   L 304.49 423.30   Q 304.34 423.36 304.48 423.44   Q 304.57 423.49 304.74 423.55   Z"/>
<path fill="#fdfefe" d="   M 223.78 430.94   L 220.48 430.74   Q 222.43 430.29 223.78 430.94   Z"/>
</svg>